<?xml version="1.0" encoding="utf-8"?>
<!-- Generator: Adobe Illustrator 21.1.0, SVG Export Plug-In . SVG Version: 6.00 Build 0)  -->
<svg version="1.1" id="Layer_1" focusable="false" xmlns="http://www.w3.org/2000/svg" xmlns:xlink="http://www.w3.org/1999/xlink"
	 x="0px" y="0px" viewBox="0 0 512 512" style="enable-background:new 0 0 512 512;" xml:space="preserve">
<style type="text/css">
	.st0{fill:#FFFFFF;}
</style>
<path class="st0" d="M507.3,27.3L484.7,4.7c-6.3-6.3-16.4-6.3-22.6,0L390,76.8C352.6,48.8,306.3,32,256,32C132.3,32,32,132.3,32,256
	c0,50.3,16.8,96.6,44.8,134L4.7,462.1c-6.3,6.3-6.3,16.4,0,22.6l22.6,22.6c6.2,6.3,16.4,6.3,22.6,0l72.1-72.1
	c37.4,28,83.7,44.8,134,44.8c123.7,0,224-100.3,224-224c0-50.3-16.8-96.6-44.8-134l72.1-72.1C513.6,43.7,513.6,33.6,507.3,27.3z
	 M112,256c0-79.4,64.6-144,144-144c28.1,0,54.2,8.4,76.4,22.4l-198,198C120.4,310.2,112,284.1,112,256z M400,256
	c0,79.4-64.6,144-144,144c-28.1,0-54.2-8.4-76.4-22.4l198-198C391.6,201.8,400,227.9,400,256z"/>
</svg>
